<mxfile host="app.diagrams.net" modified="2021-12-04T15:06:24.938Z" agent="5.0 (Windows NT 10.0; Win64; x64) AppleWebKit/537.36 (KHTML, like Gecko) Chrome/96.0.4664.55 Safari/537.36 Edg/96.0.1054.41" etag="e8ZqpC_wXZnzICSYp7j4" version="15.8.3" type="github">
  <diagram id="N9sIwehjwCReRDpdM8Rw" name="Page-1">
    <mxGraphModel dx="2692" dy="547" grid="1" gridSize="10" guides="1" tooltips="1" connect="1" arrows="1" fold="1" page="1" pageScale="1" pageWidth="827" pageHeight="1169" math="0" shadow="0">
      <root>
        <mxCell id="0" />
        <mxCell id="1" parent="0" />
        <mxCell id="TYSmrWAKZpzlqUq-h0ri-15" value="" style="rounded=0;whiteSpace=wrap;html=1;fontSize=16;" parent="1" vertex="1">
          <mxGeometry x="480" y="120" width="200" height="280" as="geometry" />
        </mxCell>
        <mxCell id="TYSmrWAKZpzlqUq-h0ri-1" value="" style="rounded=0;whiteSpace=wrap;html=1;" parent="1" vertex="1">
          <mxGeometry x="320" y="120" width="80" height="40" as="geometry" />
        </mxCell>
        <mxCell id="TYSmrWAKZpzlqUq-h0ri-2" value="demoA&lt;br&gt;demoB" style="rounded=0;whiteSpace=wrap;html=1;fillColor=#e1d5e7;strokeColor=#9673a6;" parent="1" vertex="1">
          <mxGeometry x="320" y="160" width="80" height="40" as="geometry" />
        </mxCell>
        <mxCell id="TYSmrWAKZpzlqUq-h0ri-3" value="" style="rounded=0;whiteSpace=wrap;html=1;" parent="1" vertex="1">
          <mxGeometry x="320" y="200" width="80" height="40" as="geometry" />
        </mxCell>
        <mxCell id="TYSmrWAKZpzlqUq-h0ri-4" value="" style="rounded=0;whiteSpace=wrap;html=1;" parent="1" vertex="1">
          <mxGeometry x="320" y="240" width="80" height="40" as="geometry" />
        </mxCell>
        <mxCell id="TYSmrWAKZpzlqUq-h0ri-5" value="" style="rounded=0;whiteSpace=wrap;html=1;" parent="1" vertex="1">
          <mxGeometry x="320" y="280" width="80" height="40" as="geometry" />
        </mxCell>
        <mxCell id="TYSmrWAKZpzlqUq-h0ri-6" value="" style="rounded=0;whiteSpace=wrap;html=1;" parent="1" vertex="1">
          <mxGeometry x="320" y="320" width="80" height="40" as="geometry" />
        </mxCell>
        <mxCell id="TYSmrWAKZpzlqUq-h0ri-7" value="&lt;span&gt;demoD&lt;/span&gt;" style="rounded=0;whiteSpace=wrap;html=1;fillColor=#e1d5e7;strokeColor=#9673a6;" parent="1" vertex="1">
          <mxGeometry x="320" y="360" width="80" height="40" as="geometry" />
        </mxCell>
        <mxCell id="TYSmrWAKZpzlqUq-h0ri-8" value="" style="rounded=0;whiteSpace=wrap;html=1;" parent="1" vertex="1">
          <mxGeometry x="320" y="400" width="80" height="40" as="geometry" />
        </mxCell>
        <mxCell id="TYSmrWAKZpzlqUq-h0ri-13" value="&lt;font style=&quot;font-size: 16px&quot;&gt;栈&lt;/font&gt;" style="text;html=1;align=center;verticalAlign=middle;resizable=0;points=[];autosize=1;strokeColor=none;fillColor=none;" parent="1" vertex="1">
          <mxGeometry x="345" y="90" width="30" height="20" as="geometry" />
        </mxCell>
        <mxCell id="TYSmrWAKZpzlqUq-h0ri-20" value="&lt;span style=&quot;font-size: 16px&quot;&gt;堆&lt;/span&gt;" style="text;html=1;align=center;verticalAlign=middle;resizable=0;points=[];autosize=1;strokeColor=none;fillColor=none;" parent="1" vertex="1">
          <mxGeometry x="565" y="90" width="30" height="20" as="geometry" />
        </mxCell>
        <mxCell id="TYSmrWAKZpzlqUq-h0ri-22" value="&lt;font style=&quot;font-size: 15px&quot;&gt;DemoA的实例对象&lt;br&gt;(new DemoA())&lt;br&gt;&lt;span style=&quot;color: rgba(0 , 0 , 0 , 0) ; font-family: monospace&quot;&gt;%3CmxGraphModel%3E%3Croot%3E%3CmxCell%20id%3D%220%22%2F%3E%3CmxCell%20id%3D%221%22%20parent%3D%220%22%2F%3E%3CmxCell%20id%3D%222%22%20value%3D%22%26lt%3Bfont%20style%3D%26quot%3Bfont-size%3A%2011px%26quot%3B%26gt%3BdemoB%3Dnew%20DemoB()%26lt%3B%2Ffont%26gt%3B%22%20style%3D%22rounded%3D0%3BwhiteSpace%3Dwrap%3Bhtml%3D1%3BfontSize%3D16%3BfillColor%3D%23ffe6cc%3BstrokeColor%3D%23d79b00%3B%22%20vertex%3D%221%22%20parent%3D%221%22%3E%3CmxGeometry%20x%3D%22515%22%20y%3D%22712%22%20width%3D%22130%22%20height%3D%2220%22%20as%3D%22geometry%22%2F%3E%3C%2FmxCell%3E%3C%2Froot%3E%3C%2FmxGraphModel%3E&lt;/span&gt;&lt;/font&gt;" style="rounded=1;whiteSpace=wrap;html=1;fontSize=16;fillColor=#dae8fc;strokeColor=#6c8ebf;" parent="1" vertex="1">
          <mxGeometry x="510" y="130" width="140" height="80" as="geometry" />
        </mxCell>
        <mxCell id="TYSmrWAKZpzlqUq-h0ri-25" value="&lt;font style=&quot;font-size: 15px&quot;&gt;DemoB的实例对象&lt;br&gt;(new DemoB())&lt;/font&gt;" style="rounded=1;whiteSpace=wrap;html=1;fontSize=16;fillColor=#dae8fc;strokeColor=#6c8ebf;" parent="1" vertex="1">
          <mxGeometry x="510" y="220" width="140" height="50" as="geometry" />
        </mxCell>
        <mxCell id="TYSmrWAKZpzlqUq-h0ri-26" value="&lt;font style=&quot;font-size: 15px&quot;&gt;DemoD的实例对象&lt;br&gt;(new DemoD())&lt;/font&gt;" style="rounded=1;whiteSpace=wrap;html=1;fontSize=16;fillColor=#dae8fc;strokeColor=#6c8ebf;" parent="1" vertex="1">
          <mxGeometry x="510" y="340" width="140" height="50" as="geometry" />
        </mxCell>
        <mxCell id="TYSmrWAKZpzlqUq-h0ri-30" value="&lt;font style=&quot;font-size: 16px&quot;&gt;OopMap&lt;/font&gt;" style="text;html=1;align=center;verticalAlign=middle;resizable=0;points=[];autosize=1;strokeColor=none;fillColor=none;" parent="1" vertex="1">
          <mxGeometry x="80" y="90" width="80" height="20" as="geometry" />
        </mxCell>
        <mxCell id="TYSmrWAKZpzlqUq-h0ri-31" value="&lt;span style=&quot;font-size: 16px&quot;&gt;方法区&lt;/span&gt;" style="text;html=1;align=center;verticalAlign=middle;resizable=0;points=[];autosize=1;strokeColor=none;fillColor=none;" parent="1" vertex="1">
          <mxGeometry x="550" y="410" width="60" height="20" as="geometry" />
        </mxCell>
        <mxCell id="TYSmrWAKZpzlqUq-h0ri-32" value="" style="rounded=0;whiteSpace=wrap;html=1;" parent="1" vertex="1">
          <mxGeometry x="320" y="440" width="80" height="40" as="geometry" />
        </mxCell>
        <mxCell id="TYSmrWAKZpzlqUq-h0ri-33" value="" style="rounded=0;whiteSpace=wrap;html=1;" parent="1" vertex="1">
          <mxGeometry x="320" y="480" width="80" height="40" as="geometry" />
        </mxCell>
        <mxCell id="TYSmrWAKZpzlqUq-h0ri-34" value="" style="rounded=0;whiteSpace=wrap;html=1;fontSize=16;" parent="1" vertex="1">
          <mxGeometry x="480" y="440" width="200" height="80" as="geometry" />
        </mxCell>
        <mxCell id="cxPRdGL4TECJUC4Lyo-H-4" value="栈帧1" style="text;html=1;align=center;verticalAlign=middle;resizable=0;points=[];autosize=1;strokeColor=none;fillColor=none;" parent="1" vertex="1">
          <mxGeometry x="270" y="450" width="50" height="20" as="geometry" />
        </mxCell>
        <mxCell id="cxPRdGL4TECJUC4Lyo-H-5" value="栈帧2" style="text;html=1;align=center;verticalAlign=middle;resizable=0;points=[];autosize=1;strokeColor=none;fillColor=none;" parent="1" vertex="1">
          <mxGeometry x="270" y="410" width="50" height="20" as="geometry" />
        </mxCell>
        <mxCell id="cxPRdGL4TECJUC4Lyo-H-6" value="栈帧3" style="text;html=1;align=center;verticalAlign=middle;resizable=0;points=[];autosize=1;strokeColor=none;fillColor=none;" parent="1" vertex="1">
          <mxGeometry x="270" y="370" width="50" height="20" as="geometry" />
        </mxCell>
        <mxCell id="cxPRdGL4TECJUC4Lyo-H-7" value="栈帧4" style="text;html=1;align=center;verticalAlign=middle;resizable=0;points=[];autosize=1;strokeColor=none;fillColor=none;" parent="1" vertex="1">
          <mxGeometry x="270" y="330" width="50" height="20" as="geometry" />
        </mxCell>
        <mxCell id="cxPRdGL4TECJUC4Lyo-H-8" value="栈帧5" style="text;html=1;align=center;verticalAlign=middle;resizable=0;points=[];autosize=1;strokeColor=none;fillColor=none;" parent="1" vertex="1">
          <mxGeometry x="270" y="290" width="50" height="20" as="geometry" />
        </mxCell>
        <mxCell id="cxPRdGL4TECJUC4Lyo-H-9" value="栈帧6" style="text;html=1;align=center;verticalAlign=middle;resizable=0;points=[];autosize=1;strokeColor=none;fillColor=none;" parent="1" vertex="1">
          <mxGeometry x="270" y="250" width="50" height="20" as="geometry" />
        </mxCell>
        <mxCell id="cxPRdGL4TECJUC4Lyo-H-10" value="栈帧7" style="text;html=1;align=center;verticalAlign=middle;resizable=0;points=[];autosize=1;strokeColor=none;fillColor=none;" parent="1" vertex="1">
          <mxGeometry x="270" y="210" width="50" height="20" as="geometry" />
        </mxCell>
        <mxCell id="cxPRdGL4TECJUC4Lyo-H-11" value="栈帧8" style="text;html=1;align=center;verticalAlign=middle;resizable=0;points=[];autosize=1;strokeColor=none;fillColor=none;" parent="1" vertex="1">
          <mxGeometry x="270" y="170" width="50" height="20" as="geometry" />
        </mxCell>
        <mxCell id="cxPRdGL4TECJUC4Lyo-H-12" value="栈帧9" style="text;html=1;align=center;verticalAlign=middle;resizable=0;points=[];autosize=1;strokeColor=none;fillColor=none;" parent="1" vertex="1">
          <mxGeometry x="270" y="130" width="50" height="20" as="geometry" />
        </mxCell>
        <mxCell id="cxPRdGL4TECJUC4Lyo-H-14" value="栈帧0" style="text;html=1;align=center;verticalAlign=middle;resizable=0;points=[];autosize=1;strokeColor=none;fillColor=none;" parent="1" vertex="1">
          <mxGeometry x="270" y="490" width="50" height="20" as="geometry" />
        </mxCell>
        <mxCell id="cxPRdGL4TECJUC4Lyo-H-61" style="rounded=0;orthogonalLoop=1;jettySize=auto;html=1;fontSize=11;exitX=1;exitY=0.5;exitDx=0;exitDy=0;" parent="1" source="cxPRdGL4TECJUC4Lyo-H-16" target="TYSmrWAKZpzlqUq-h0ri-2" edge="1">
          <mxGeometry relative="1" as="geometry" />
        </mxCell>
        <mxCell id="cxPRdGL4TECJUC4Lyo-H-16" value="&lt;font style=&quot;font-size: 14px&quot;&gt;栈帧8&lt;br&gt;起始地址：M&lt;br&gt;&lt;br&gt;偏移量为a存放：demoA&lt;br&gt;地址：M + a&lt;br&gt;&lt;br&gt;偏移量为b存放：demoB&lt;br&gt;地址：M + b&lt;br&gt;&lt;br&gt;demoA中偏移量为c存放：demoC&lt;br&gt;地址：M + a + c&lt;/font&gt;" style="rounded=0;whiteSpace=wrap;html=1;" parent="1" vertex="1">
          <mxGeometry x="40" y="120" width="160" height="240" as="geometry" />
        </mxCell>
        <mxCell id="cxPRdGL4TECJUC4Lyo-H-17" value="&lt;font style=&quot;font-size: 14px&quot;&gt;DemoA.class&lt;/font&gt;" style="rounded=1;whiteSpace=wrap;html=1;fontSize=16;fillColor=#d5e8d4;strokeColor=#82b366;" parent="1" vertex="1">
          <mxGeometry x="485" y="454" width="90" height="20" as="geometry" />
        </mxCell>
        <mxCell id="cxPRdGL4TECJUC4Lyo-H-18" value="&lt;font style=&quot;font-size: 14px&quot;&gt;DemoB.class&lt;/font&gt;" style="rounded=1;whiteSpace=wrap;html=1;fontSize=16;fillColor=#d5e8d4;strokeColor=#82b366;" parent="1" vertex="1">
          <mxGeometry x="585" y="454" width="90" height="20" as="geometry" />
        </mxCell>
        <mxCell id="cxPRdGL4TECJUC4Lyo-H-64" style="edgeStyle=none;rounded=0;orthogonalLoop=1;jettySize=auto;html=1;entryX=0;entryY=0.75;entryDx=0;entryDy=0;fontSize=11;exitX=1;exitY=0.5;exitDx=0;exitDy=0;" parent="1" source="cxPRdGL4TECJUC4Lyo-H-63" target="TYSmrWAKZpzlqUq-h0ri-7" edge="1">
          <mxGeometry relative="1" as="geometry" />
        </mxCell>
        <mxCell id="cxPRdGL4TECJUC4Lyo-H-63" value="&lt;font style=&quot;font-size: 14px&quot;&gt;栈帧3&lt;br&gt;起始地址：N&lt;br&gt;&lt;br&gt;偏移量为c存放：demoC&lt;br&gt;地址：N + c&lt;/font&gt;" style="rounded=0;whiteSpace=wrap;html=1;" parent="1" vertex="1">
          <mxGeometry x="40" y="400" width="160" height="120" as="geometry" />
        </mxCell>
        <mxCell id="cxPRdGL4TECJUC4Lyo-H-65" value="&lt;font style=&quot;font-size: 15px&quot;&gt;DemoC的实例对象&lt;br&gt;(new DemoC())&lt;/font&gt;" style="rounded=1;whiteSpace=wrap;html=1;fontSize=16;fillColor=#dae8fc;strokeColor=#6c8ebf;" parent="1" vertex="1">
          <mxGeometry x="510" y="280" width="140" height="50" as="geometry" />
        </mxCell>
        <mxCell id="cxPRdGL4TECJUC4Lyo-H-68" style="edgeStyle=orthogonalEdgeStyle;rounded=0;orthogonalLoop=1;jettySize=auto;html=1;entryX=1;entryY=0.5;entryDx=0;entryDy=0;fontSize=11;exitX=1;exitY=0.5;exitDx=0;exitDy=0;" parent="1" source="cxPRdGL4TECJUC4Lyo-H-66" target="cxPRdGL4TECJUC4Lyo-H-65" edge="1">
          <mxGeometry relative="1" as="geometry" />
        </mxCell>
        <mxCell id="cxPRdGL4TECJUC4Lyo-H-66" value="&lt;font style=&quot;font-size: 11px&quot;&gt;demoC=new DemoC()&lt;/font&gt;" style="rounded=0;whiteSpace=wrap;html=1;fontSize=16;fillColor=#ffe6cc;strokeColor=#d79b00;" parent="1" vertex="1">
          <mxGeometry x="515" y="184" width="130" height="20" as="geometry" />
        </mxCell>
        <mxCell id="TYSmrWAKZpzlqUq-h0ri-27" style="rounded=0;orthogonalLoop=1;jettySize=auto;html=1;fontSize=16;exitX=0.75;exitY=0.25;exitDx=0;exitDy=0;exitPerimeter=0;" parent="1" target="TYSmrWAKZpzlqUq-h0ri-22" edge="1">
          <mxGeometry relative="1" as="geometry">
            <mxPoint x="380" y="173" as="sourcePoint" />
            <mxPoint x="510" y="173" as="targetPoint" />
          </mxGeometry>
        </mxCell>
        <mxCell id="cxPRdGL4TECJUC4Lyo-H-67" style="rounded=0;orthogonalLoop=1;jettySize=auto;html=1;entryX=0;entryY=0.5;entryDx=0;entryDy=0;fontSize=16;" parent="1" target="TYSmrWAKZpzlqUq-h0ri-25" edge="1">
          <mxGeometry relative="1" as="geometry">
            <mxPoint x="380" y="187" as="sourcePoint" />
            <mxPoint x="510" y="242" as="targetPoint" />
          </mxGeometry>
        </mxCell>
        <mxCell id="cxPRdGL4TECJUC4Lyo-H-71" value="&lt;font style=&quot;font-size: 14px&quot;&gt;DemoC.class&lt;/font&gt;" style="rounded=1;whiteSpace=wrap;html=1;fontSize=16;fillColor=#d5e8d4;strokeColor=#82b366;" parent="1" vertex="1">
          <mxGeometry x="485" y="486" width="90" height="20" as="geometry" />
        </mxCell>
        <mxCell id="cxPRdGL4TECJUC4Lyo-H-72" value="&lt;font style=&quot;font-size: 14px&quot;&gt;DemoD.class&lt;/font&gt;" style="rounded=1;whiteSpace=wrap;html=1;fontSize=16;fillColor=#d5e8d4;strokeColor=#82b366;" parent="1" vertex="1">
          <mxGeometry x="585" y="486" width="90" height="20" as="geometry" />
        </mxCell>
        <mxCell id="TYSmrWAKZpzlqUq-h0ri-29" style="edgeStyle=none;rounded=0;orthogonalLoop=1;jettySize=auto;html=1;entryX=0;entryY=0.5;entryDx=0;entryDy=0;fontSize=16;" parent="1" target="TYSmrWAKZpzlqUq-h0ri-26" edge="1">
          <mxGeometry relative="1" as="geometry">
            <mxPoint x="380" y="380" as="sourcePoint" />
          </mxGeometry>
        </mxCell>
      </root>
    </mxGraphModel>
  </diagram>
</mxfile>
